<svg width="320" height="320" viewBox="0 0 320 320" fill="none" xmlns="http://www.w3.org/2000/svg">
<path fill-rule="evenodd" clip-rule="evenodd" d="M163.438 59.8728C107.483 59.8728 62.122 105.234 62.122 161.189C62.122 217.145 107.483 262.505 163.438 262.505C219.394 262.505 264.755 217.145 264.755 161.189C264.755 105.234 219.394 59.8728 163.438 59.8728ZM56.1621 161.189C56.1621 101.942 104.191 53.9131 163.438 53.9131C222.685 53.9131 270.715 101.942 270.715 161.189C270.715 220.436 222.685 268.466 163.438 268.466C104.191 268.466 56.1621 220.436 56.1621 161.189Z" fill="black" fill-opacity="0.03"/>
<path d="M150.625 28.4738C150.564 27.4808 150.538 26.5339 150.547 25.6331C149.829 27.0276 148.807 28.1996 147.483 29.1489C146.157 30.0663 144.647 30.6092 142.954 30.7775L142.65 25.8287C144.682 25.4145 146.445 24.5347 147.937 23.1891C149.46 21.8095 150.406 20.1921 150.774 18.3369L155.098 18.0713L157.164 51.7037L152.07 52.0164L150.625 28.4738ZM151.793 47.5001L156.886 47.1873L157.164 51.7037L152.07 52.0164L151.793 47.5001Z" fill="#8800FF"/>
<path d="M162.733 51.362C162.648 49.4382 162.881 47.752 163.435 46.3032C164.02 44.8206 164.853 43.4673 165.936 42.2434C167.018 41.0194 168.553 39.5748 170.54 37.9095L173.657 35.2585L173.747 35.1565C175.612 33.5951 177.048 32.1083 178.055 30.6962C179.059 29.2519 179.509 27.681 179.405 25.9834C179.332 24.7983 179.029 23.788 178.496 22.9527C177.96 22.0853 177.229 21.439 176.302 21.0136C175.406 20.5542 174.35 20.3619 173.133 20.4366C171.787 20.5193 170.637 20.8953 169.681 21.5649C168.758 22.2324 168.076 23.1746 167.636 24.3912C167.196 25.6078 167.027 27.0329 167.127 28.6665L167.156 29.1469L161.775 29.4774L161.731 28.7567C161.584 26.3544 161.951 24.2259 162.834 22.3712C163.717 20.5165 165.025 19.0536 166.76 17.9825C168.495 16.9114 170.532 16.3041 172.87 16.1605C175.112 16.0228 177.092 16.3353 178.811 17.0978C180.528 17.8283 181.882 18.9348 182.873 20.4172C183.897 21.8976 184.47 23.6468 184.594 25.6647C184.704 27.4585 184.436 29.1147 183.79 30.6334C183.144 32.152 182.203 33.5922 180.969 34.9542C179.734 36.316 178.108 37.8466 176.091 39.546L173.887 41.3692C172.236 42.7566 171.078 43.7923 170.413 44.4762C169.746 45.1281 169.347 45.7151 169.219 46.2375L186.083 45.2019L186.372 49.9104L162.733 51.362Z" fill="#8800FF"/>
<path d="M213.274 53.1569C213.772 52.2953 214.273 51.4915 214.777 50.7454C213.409 51.5116 211.91 51.9249 210.282 51.9853C208.67 52.0179 207.111 51.6368 205.606 50.8419L208.085 46.5481C210.008 47.3249 211.964 47.5644 213.951 47.2668C215.983 46.9575 217.664 46.131 218.995 44.7876L222.747 46.9537L205.899 76.1351L201.48 73.5839L213.274 53.1569ZM203.743 69.6652L208.162 72.2165L205.899 76.1351L201.48 73.5839L203.743 69.6652Z" fill="#0BC1FA"/>
<path d="M243.151 115.868C244.835 114.934 246.448 114.391 247.992 114.241C249.579 114.103 251.162 114.245 252.741 114.668C254.318 115.091 256.296 115.82 258.673 116.856L262.436 118.463L262.567 118.499C264.797 119.472 266.768 120.094 268.481 120.365C270.221 120.62 271.828 120.322 273.301 119.472C274.329 118.879 275.098 118.157 275.608 117.306C276.146 116.44 276.398 115.498 276.365 114.479C276.377 113.472 276.078 112.44 275.468 111.384C274.794 110.217 273.945 109.355 272.919 108.798C271.909 108.269 270.763 108.079 269.477 108.228C268.193 108.378 266.842 108.861 265.424 109.679L265.007 109.92L262.312 105.251L262.937 104.89C265.021 103.687 267.09 103.066 269.144 103.029C271.197 102.992 273.091 103.512 274.823 104.586C276.555 105.661 278.007 107.213 279.178 109.242C280.302 111.187 280.905 113.099 280.989 114.978C281.101 116.84 280.714 118.546 279.83 120.094C278.961 121.67 277.652 122.963 275.901 123.974C274.344 124.873 272.743 125.371 271.095 125.47C269.447 125.57 267.739 125.37 265.969 124.872C264.2 124.375 262.104 123.602 259.684 122.554L257.07 121.395C255.091 120.536 253.648 119.961 252.739 119.671C251.858 119.364 251.155 119.27 250.63 119.388L259.078 134.021L254.993 136.379L243.151 115.868Z" fill="#332BFD"/>
<path d="M273.058 160.246C273.327 157.758 273.991 155.651 275.049 153.925C276.137 152.235 277.563 150.986 279.329 150.176C281.092 149.399 283.106 149.133 285.371 149.379L284.811 154.547C282.737 154.322 281.011 154.765 279.632 155.874C278.284 156.987 277.499 158.581 277.274 160.654C277.122 162.058 277.229 163.313 277.593 164.417C277.954 165.554 278.55 166.458 279.381 167.128C280.241 167.835 281.293 168.256 282.537 168.39C283.718 168.518 284.756 168.324 285.65 167.807C286.578 167.295 287.321 166.536 287.882 165.532C288.471 164.562 288.839 163.408 288.984 162.067L289.217 159.914L293.62 160.391L293.381 162.592C293.257 163.741 293.338 164.783 293.624 165.717C293.938 166.688 294.465 167.488 295.204 168.116C295.971 168.78 296.929 169.175 298.078 169.299C299.641 169.468 300.944 169.06 301.987 168.076C303.03 167.091 303.649 165.69 303.847 163.871C304.068 161.829 303.698 160.176 302.738 158.909C301.777 157.643 300.345 156.859 298.441 156.556L299.016 151.244C301.08 151.564 302.839 152.303 304.296 153.461C305.752 154.62 306.816 156.123 307.487 157.971C308.155 159.851 308.358 162.004 308.095 164.428C307.867 166.534 307.281 168.375 306.335 169.951C305.386 171.559 304.158 172.766 302.651 173.57C301.175 174.379 299.528 174.685 297.71 174.488C295.923 174.295 294.42 173.567 293.201 172.305C292.01 171.079 291.214 169.491 290.812 167.543C290.006 169.619 288.803 171.183 287.204 172.236C285.606 173.29 283.753 173.703 281.648 173.475C279.733 173.268 278.083 172.556 276.698 171.341C275.309 170.158 274.284 168.594 273.623 166.65C272.99 164.742 272.802 162.607 273.058 160.246Z" fill="#91F925"/>
<path d="M223.348 200.554L231.17 187.005L235.172 189.317L246.004 211.856L242.658 217.651L224.649 207.253L221.544 212.631L217.667 210.393L220.772 205.015L213.477 200.803L216.053 196.342L223.348 200.554ZM227.225 202.792L241.065 210.783C240.579 210.02 240.144 209.233 239.762 208.419L233.509 195.47C233.103 194.569 232.805 193.897 232.616 193.454L227.225 202.792Z" fill="#8800FF"/>
<path d="M185.202 244.564C187.258 243.376 189.274 242.695 191.247 242.519C193.209 242.387 194.992 242.747 196.596 243.6C198.172 244.468 199.463 245.742 200.47 247.422L195.968 250.021C195.074 248.536 193.853 247.61 192.307 247.243C190.761 246.876 189.14 247.181 187.445 248.16C186.222 248.867 185.291 249.756 184.65 250.829C184.011 251.903 183.729 253.084 183.806 254.374C183.857 255.679 184.258 256.986 185.013 258.291C186.088 260.154 187.484 261.385 189.202 261.986C190.92 262.587 192.683 262.367 194.489 261.324C195.823 260.554 196.804 259.525 197.431 258.236C198.075 256.976 198.317 255.76 198.161 254.591L202.538 252.063L209.98 270.056L193.472 279.587L191.065 275.418L204.28 267.789L201.292 260.398L201.014 259.724C200.881 259.431 200.795 259.184 200.754 258.985C200.686 258.803 200.599 258.556 200.494 258.246C200.309 259.724 199.796 261.113 198.955 262.415C198.112 263.717 196.955 264.792 195.482 265.642C193.703 266.67 191.87 267.153 189.983 267.094C188.096 267.035 186.323 266.465 184.662 265.386C183.017 264.335 181.666 262.892 180.606 261.058C179.387 258.945 178.786 256.846 178.805 254.761C178.796 252.691 179.348 250.759 180.463 248.968C181.565 247.219 183.145 245.752 185.202 244.564Z" fill="#FA0B54"/>
<path d="M163.621 270.694C166.541 270.745 168.95 271.509 170.85 272.987C172.75 274.497 174.127 276.51 174.982 279.029C175.804 281.579 176.185 284.506 176.128 287.811C176.066 291.373 175.513 294.525 174.471 297.267C173.428 300.009 171.85 302.147 169.737 303.683C167.623 305.251 165.042 306.008 161.994 305.955C159.876 305.918 158.039 305.485 156.48 304.656C154.921 303.858 153.721 302.746 152.879 301.319C152.006 299.891 151.537 298.246 151.473 296.383L156.671 296.474C156.772 298.08 157.311 299.342 158.29 300.257C159.236 301.205 160.544 301.693 162.213 301.723C164.811 301.768 166.834 300.808 168.281 298.843C169.727 296.911 170.562 294.117 170.786 290.462C170.862 289.821 170.92 289.212 170.963 288.635C170.103 290.032 168.896 291.199 167.338 292.135C165.749 293.102 163.96 293.568 161.97 293.533C159.948 293.498 158.144 292.986 156.557 291.994C154.968 291.037 153.74 289.699 152.871 287.982C152.002 286.298 151.586 284.397 151.623 282.279C151.662 280.034 152.211 278.022 153.269 276.242C154.327 274.463 155.764 273.076 157.579 272.081C159.393 271.118 161.406 270.656 163.621 270.694ZM163.644 274.835C162.361 274.813 161.217 275.098 160.211 275.69C159.174 276.281 158.357 277.118 157.76 278.198C157.163 279.312 156.852 280.622 156.825 282.13C156.789 284.184 157.37 285.878 158.566 287.216C159.73 288.552 161.291 289.237 163.248 289.271C164.564 289.294 165.756 289.01 166.826 288.419C167.862 287.859 168.695 287.055 169.323 286.007C169.918 284.991 170.228 283.808 170.251 282.461C170.28 280.856 170.015 279.487 169.457 278.355C168.899 277.222 168.127 276.358 167.143 275.763C166.126 275.167 164.96 274.858 163.644 274.835Z" fill="#FB42DF"/>
<path d="M170.465 219.312C168.377 222.478 165.954 225.36 163.195 227.955C160.394 230.561 157.403 232.725 154.223 234.447C151.015 236.151 147.808 237.246 144.602 237.729L160.818 247.092L158.411 251.261L138.109 239.539L140.661 235.12C145.351 233.863 149.839 231.675 154.124 228.553C158.409 225.432 162.16 221.372 165.379 216.375L170.465 219.312Z" fill="#FBA808"/>
<path d="M118.979 172.648C120.262 174.871 121.022 176.99 121.258 179.003C121.494 181.016 121.227 182.8 120.458 184.356C119.689 185.912 118.484 187.163 116.844 188.11C115.15 189.088 113.322 189.421 111.362 189.108C109.358 188.782 107.505 187.851 105.803 186.314C106.166 188.291 106.072 190.086 105.522 191.701C104.944 193.332 103.863 194.604 102.279 195.519C100.695 196.433 99.0589 196.84 97.3703 196.74C95.6826 196.641 94.058 196.04 92.4967 194.941C90.9191 193.814 89.5612 192.263 88.4214 190.29C87.2824 188.317 86.6273 186.379 86.4555 184.477C86.2836 182.575 86.5687 180.854 87.3101 179.315C88.0238 177.791 89.1451 176.588 90.6733 175.706C92.2855 174.775 93.9694 174.451 95.7265 174.734C97.4551 175.033 99.065 175.864 100.555 177.226C100.048 174.999 100.141 172.945 100.833 171.063C101.497 169.197 102.663 167.783 104.331 166.82C106.026 165.841 107.761 165.414 109.538 165.537C111.313 165.661 113.014 166.328 114.639 167.538C116.265 168.749 117.711 170.452 118.979 172.648ZM115.394 174.718C114.688 173.495 113.853 172.531 112.891 171.827C111.901 171.139 110.872 170.77 109.805 170.719C108.722 170.639 107.68 170.889 106.68 171.467C105.207 172.317 104.321 173.607 104.022 175.336C103.708 177.037 104.08 178.805 105.139 180.639C105.812 181.806 106.644 182.733 107.635 183.422C108.597 184.126 109.62 184.517 110.703 184.596C111.786 184.675 112.814 184.433 113.786 183.872C115.315 182.99 116.237 181.698 116.551 179.997C116.839 178.312 116.453 176.552 115.394 174.718ZM101.261 182.877C100.636 181.793 99.8873 180.947 99.0173 180.337C98.1464 179.729 97.2355 179.402 96.2845 179.359C95.3165 179.287 94.3879 179.508 93.4985 180.022C92.5815 180.552 91.904 181.239 91.4663 182.084C91.0278 182.931 90.8552 183.882 90.9476 184.941C91.0394 185.999 91.407 187.085 92.0489 188.196C92.6747 189.28 93.4222 190.126 94.2931 190.736C95.1632 191.345 96.0826 191.685 97.0498 191.756C97.9738 191.816 98.8662 191.597 99.7278 191.1C101.117 190.297 101.968 189.139 102.279 187.626C102.548 186.1 102.209 184.517 101.261 182.877Z" fill="#91F925"/>
<path d="M54.1585 160.014C54.4404 162.211 54.3015 164.154 53.7418 165.843C53.1504 167.537 52.1936 168.905 50.8716 169.948C49.5495 170.992 47.9536 171.666 46.0838 171.97L45.4219 166.814C47.0967 166.502 48.3482 165.791 49.1764 164.682C50.0047 163.573 50.3065 162.143 50.0817 160.392C49.7467 157.782 48.3814 155.968 45.9858 154.949C43.5584 153.934 40.6618 153.674 37.296 154.171C37.1687 154.187 37.0572 154.202 36.9617 154.214C36.5161 154.271 36.1341 154.32 35.8158 154.361C37.1953 155.025 38.4287 156.064 39.516 157.477C40.6034 158.891 41.2696 160.552 41.5147 162.462C41.7599 164.372 41.523 166.182 40.8042 167.892C40.0854 169.602 38.9597 171.041 37.4271 172.208C35.8904 173.344 34.024 174.052 31.8277 174.334C29.6633 174.612 27.6722 174.349 25.8544 173.548C24.0008 172.718 22.4822 171.473 21.2984 169.813C20.1148 168.153 19.384 166.241 19.1062 164.077C18.7426 161.244 19.2062 158.806 20.4971 156.764C21.7521 154.694 23.6294 153.062 26.1292 151.868C28.6249 150.641 31.5438 149.814 34.886 149.385C38.3236 148.943 41.4226 149.015 44.1829 149.599C46.9393 150.151 49.2059 151.3 50.9829 153.045C52.7241 154.763 53.7826 157.086 54.1585 160.014ZM37.1538 161.76C36.9945 160.519 36.565 159.442 35.8654 158.529C35.13 157.588 34.2002 156.898 33.0763 156.46C31.9205 156.025 30.6424 155.899 29.2419 156.079C27.905 156.25 26.764 156.687 25.819 157.391C24.8381 158.067 24.1265 158.952 23.6843 160.044C23.238 161.103 23.0945 162.255 23.2539 163.495C23.4132 164.737 23.8447 165.831 24.5484 166.775C25.248 167.689 26.1598 168.364 27.2837 168.802C28.4035 169.208 29.6319 169.326 30.9688 169.154C32.3693 168.975 33.56 168.547 34.5409 167.871C35.5218 167.195 36.2514 166.325 36.7295 165.26C37.1717 164.168 37.3132 163.001 37.1538 161.76Z" fill="#332BFD"/>
<path d="M56.86 140.142C55.9984 139.644 55.1946 139.143 54.4486 138.639C55.2147 140.007 55.628 141.506 55.6884 143.134C55.721 144.746 55.3399 146.305 54.545 147.81L50.2512 145.331C51.028 143.408 51.2676 141.452 50.9699 139.465C50.6605 137.433 49.8341 135.752 48.4907 134.421L50.6568 130.668L79.8382 147.517L77.287 151.936L56.86 140.142ZM73.3683 149.673L75.9196 145.254L79.8382 147.517L77.287 151.936L73.3683 149.673Z" fill="#117D45"/>
<path d="M89.818 131.771C88.4863 134.077 86.7415 135.72 84.5836 136.698C82.4141 137.631 79.9411 137.87 77.1648 137.417C74.3885 136.963 71.4023 135.813 68.2063 133.967C65.038 132.138 62.5711 130.121 60.8057 127.916C59.0124 125.695 57.9777 123.411 57.7015 121.065C57.4414 118.692 57.9612 116.38 59.261 114.129C60.5606 111.878 62.2952 110.285 64.4648 109.351C66.6503 108.39 69.1532 108.131 71.9733 108.573C74.7818 108.971 77.7979 110.101 81.0218 111.962C84.1898 113.792 86.6567 115.809 88.4223 118.014C90.2041 120.192 91.2105 122.459 91.4433 124.816C91.6914 127.146 91.1497 129.464 89.818 131.771ZM86.1735 129.611C86.9434 128.277 87.1931 126.883 86.9203 125.429C86.6482 123.975 85.809 122.508 84.4025 121.029C82.9844 119.506 80.9969 118.007 78.4401 116.531C74.5214 114.268 71.2604 113.145 68.6571 113.162C66.0699 113.15 64.1826 114.173 62.9952 116.229C62.1929 117.619 61.9418 119.049 62.2417 120.519C62.5139 121.973 63.381 123.455 64.843 124.967C66.3051 126.478 68.3562 127.995 70.9965 129.52C74.8039 131.718 77.9954 132.801 80.5709 132.769C83.1186 132.72 84.9859 131.667 86.1735 129.611Z" fill="#117D45"/>
<path d="M123.844 88.2293C123.346 87.3677 122.9 86.5316 122.507 85.7216C122.486 87.2899 122.094 88.7942 121.333 90.2346C120.554 91.6472 119.445 92.8063 118.004 93.7118L115.526 89.4185C117.16 88.1415 118.345 86.5678 119.081 84.6974C119.828 82.7838 119.953 80.9143 119.456 79.0895L123.208 76.9233L140.056 106.105L135.637 108.656L123.844 88.2293ZM133.374 104.737L137.793 102.186L140.056 106.105L135.637 108.656L133.374 104.737Z" fill="#FB42DF"/>
<path d="M139.181 79.3735C138.684 78.512 138.239 77.676 137.845 76.8658C137.824 78.4342 137.432 79.9385 136.67 81.3789C135.893 82.7915 134.783 83.9506 133.342 84.8569L130.863 80.5628C132.498 79.2859 133.682 77.7122 134.418 75.8422C135.167 73.9282 135.292 72.0588 134.794 70.234L138.546 68.0679L155.393 97.2491L150.974 99.8008L139.181 79.3735ZM148.713 95.882L153.131 93.3303L155.393 97.2491L150.974 99.8008L148.713 95.882Z" fill="#FB42DF"/>
<path fill-rule="evenodd" clip-rule="evenodd" d="M164.003 160.645L264.462 264.766L263.333 265.856L162.874 161.734L164.003 160.645Z" fill="#FB42DF"/>
<path fill-rule="evenodd" clip-rule="evenodd" d="M161.869 159.804L257.881 50.9736L261.02 53.7428L165.008 162.573L161.869 159.804Z" fill="#91F925"/>
<path fill-rule="evenodd" clip-rule="evenodd" d="M163.084 163.252L86.9922 150.193L87.7004 146.067L163.793 159.126L163.084 163.252Z" fill="#0BC1FA"/>
<path d="M168.147 161.189C168.147 163.79 166.04 165.898 163.439 165.898C160.838 165.898 158.73 163.79 158.73 161.189C158.73 158.588 160.838 156.48 163.439 156.48C166.04 156.48 168.147 158.588 168.147 161.189Z" fill="#FA0B54"/>
<path d="M132.926 314.426L131.457 314.076L134.148 302.777L135.617 303.127L132.926 314.426ZM136.975 304.73L132.246 303.603L132.534 302.393L137.264 303.519L136.975 304.73ZM134.572 314.818L129.843 313.691L130.131 312.481L134.861 313.607L134.572 314.818Z" fill="#8800FF"/>
<path d="M127.131 300.633C127.811 300.831 128.361 301.118 128.781 301.494C129.201 301.871 129.484 302.305 129.628 302.796C129.773 303.288 129.77 303.811 129.619 304.366L128.281 303.976C128.415 303.439 128.357 302.967 128.107 302.56C127.843 302.16 127.409 301.872 126.804 301.695C126.273 301.54 125.816 301.528 125.432 301.658C125.035 301.795 124.78 302.055 124.668 302.437C124.579 302.745 124.617 303.027 124.784 303.284C124.938 303.547 125.231 303.788 125.662 304.007L126.76 304.569C127.452 304.921 127.951 305.343 128.257 305.836C128.563 306.328 128.632 306.861 128.465 307.435C128.337 307.87 128.097 308.22 127.743 308.486C127.389 308.751 126.961 308.914 126.459 308.975C125.944 309.044 125.399 308.994 124.826 308.827C124.21 308.647 123.708 308.391 123.321 308.059C122.931 307.738 122.668 307.356 122.532 306.913C122.383 306.478 122.368 305.995 122.488 305.465L123.842 305.861C123.762 306.333 123.847 306.732 124.097 307.059C124.337 307.382 124.717 307.62 125.238 307.772C125.694 307.905 126.09 307.911 126.425 307.79C126.76 307.669 126.975 307.444 127.072 307.114C127.158 306.817 127.12 306.552 126.957 306.321C126.795 306.089 126.503 305.865 126.082 305.65L124.952 305.078C124.26 304.726 123.764 304.311 123.466 303.832C123.157 303.35 123.093 302.801 123.273 302.186C123.406 301.729 123.656 301.347 124.022 301.039C124.386 300.742 124.839 300.551 125.382 300.468C125.911 300.392 126.494 300.447 127.131 300.633Z" fill="#8800FF"/>
<path d="M115.142 305.363L113.805 304.864L116.6 297.371L117.937 297.87L115.142 305.363ZM117.525 298.973L116.189 298.475L116.6 297.371L117.937 297.87L117.525 298.973ZM115.142 305.363L114.473 305.113L114.885 304.01L115.554 304.259L115.142 305.363ZM114.141 308.425L112.587 307.845L113.184 306.244L114.739 306.824L114.141 308.425Z" fill="#8800FF"/>
<path d="M111.314 295.133C111.928 295.384 112.366 295.76 112.628 296.261C112.874 296.769 112.841 297.406 112.527 298.174L110.79 302.429L112.172 302.994L111.727 304.084L110.344 303.52L109.347 305.962L108.026 305.423L109.023 302.98L107.487 302.353L107.933 301.262L109.469 301.89L111.15 297.773C111.317 297.363 111.344 297.034 111.231 296.784C111.108 296.531 110.872 296.333 110.524 296.191C110.37 296.128 110.179 296.068 109.952 296.011L110.416 294.874C110.562 294.898 110.708 294.934 110.856 294.982C111.008 295.02 111.16 295.071 111.314 295.133Z" fill="#8800FF"/>
<path d="M101.767 290.589C102.478 290.948 103.02 291.408 103.394 291.968C103.758 292.524 103.938 293.16 103.935 293.877C103.922 294.59 103.711 295.351 103.302 296.16C102.938 296.881 102.468 297.455 101.893 297.883C101.307 298.306 100.675 298.551 99.9972 298.618C99.3094 298.679 98.6445 298.548 98.0028 298.223C97.3018 297.869 96.7842 297.41 96.4502 296.844C96.1111 296.289 95.9579 295.66 95.9905 294.958C96.0181 294.265 96.2265 293.534 96.6155 292.764L96.7427 292.512L102.163 295.25C102.423 294.712 102.556 294.203 102.563 293.723C102.56 293.238 102.448 292.81 102.227 292.438C101.991 292.071 101.666 291.783 101.251 291.573C100.767 291.329 100.298 291.228 99.8422 291.271C99.3819 291.323 98.9826 291.586 98.6442 292.06L97.3854 291.424C97.6592 291.004 98.0118 290.674 98.4432 290.434C98.8746 290.193 99.3797 290.077 99.9584 290.084C100.522 290.096 101.125 290.264 101.767 290.589ZM97.6488 294.104C97.3196 294.755 97.2305 295.361 97.3816 295.921C97.5227 296.475 97.8994 296.907 98.5115 297.216C99.0941 297.511 99.6752 297.55 100.255 297.335C100.835 297.12 101.304 296.718 101.662 296.131L97.6488 294.104Z" fill="#8800FF"/>
<path d="M92.651 295.132L91.304 294.346L92.4607 288.316C92.5125 288.051 92.5671 287.782 92.6245 287.508C92.4143 287.693 92.2068 287.873 92.0021 288.048L87.3633 292.046L86.0736 291.293L92.7277 285.916L94.0317 286.678L92.651 295.132Z" fill="#8800FF"/>
<path d="M86.7031 281.839C87.3672 282.279 87.8521 282.799 88.1578 283.399C88.4543 283.993 88.5592 284.646 88.4725 285.358C88.3766 286.064 88.0783 286.795 87.5776 287.552C87.1319 288.225 86.5982 288.741 85.9765 289.099C85.3457 289.45 84.6897 289.62 84.0085 289.607C83.3182 289.587 82.6732 289.379 82.0737 288.982C81.4188 288.549 80.9585 288.032 80.6927 287.431C80.4208 286.84 80.342 286.198 80.4563 285.504C80.5645 284.819 80.8568 284.118 81.3331 283.398L81.4888 283.163L86.5526 286.515C86.8731 286.011 87.0648 285.521 87.1277 285.045C87.1814 284.563 87.1201 284.125 86.944 283.73C86.7525 283.338 86.463 283.013 86.0756 282.757C85.6237 282.458 85.1691 282.303 84.7119 282.292C84.2487 282.29 83.8214 282.505 83.4301 282.936L82.2541 282.157C82.5749 281.773 82.9637 281.486 83.4202 281.297C83.8767 281.109 84.3919 281.052 84.9659 281.127C85.5245 281.205 86.1036 281.442 86.7031 281.839ZM82.203 284.849C81.7999 285.458 81.6408 286.049 81.7255 286.623C81.801 287.19 82.1246 287.663 82.6965 288.042C83.2407 288.402 83.8132 288.509 84.4141 288.363C85.0149 288.217 85.5277 287.873 85.9524 287.332L82.203 284.849Z" fill="#8800FF"/>
<path d="M76.9984 285.167L75.8482 284.322L76.0544 284.041C76.2443 283.783 76.4374 283.52 76.6338 283.252C76.1829 283.511 75.6985 283.629 75.1805 283.605C74.6471 283.584 74.1441 283.4 73.6715 283.053C73.5467 282.962 73.4519 282.885 73.3871 282.824L74.2218 281.687C74.3336 281.797 74.4474 281.894 74.5633 281.979C74.9824 282.287 75.3979 282.468 75.81 282.524C76.2066 282.582 76.5986 282.506 76.9858 282.296C77.3666 282.095 77.7304 281.759 78.0774 281.286L80.5815 277.876L81.7318 278.72L76.9984 285.167Z" fill="#8800FF"/>
<path d="M71.2593 270.282C71.7653 270.712 72.0646 271.205 72.1572 271.763C72.2343 272.322 72.0043 272.917 71.4674 273.55L68.4929 277.054L69.6314 278.02L68.869 278.918L67.7305 277.952L66.0232 279.963L64.9353 279.04L66.6427 277.028L65.3778 275.954L66.1402 275.056L67.4051 276.13L70.2829 272.74C70.5693 272.403 70.6974 272.098 70.6673 271.826C70.6288 271.546 70.4662 271.285 70.1795 271.042C70.053 270.934 69.8904 270.818 69.6919 270.693L70.4865 269.757C70.6176 269.825 70.7458 269.905 70.871 269.996C71.0034 270.08 71.1328 270.175 71.2593 270.282Z" fill="#8800FF"/>
<path d="M61.0693 276.985L60.027 276.01L62.7694 273.077C62.8374 273.004 62.9054 272.931 62.9734 272.859C63.0338 272.794 63.0791 272.746 63.1094 272.713C63.132 272.689 63.1736 272.645 63.234 272.58C62.8004 272.72 62.3389 272.727 61.8495 272.603C61.3526 272.487 60.9102 272.247 60.5223 271.885C60.0779 271.469 59.781 271.017 59.6316 270.529C59.4746 270.049 59.4774 269.552 59.6401 269.038C59.7948 268.516 60.1025 268.009 60.5634 267.516L64.0083 263.832L65.0507 264.806L61.7304 268.357C61.2015 268.923 60.9175 269.437 60.8783 269.9C60.8315 270.372 61.0384 270.822 61.499 271.253C61.8222 271.555 62.1767 271.743 62.5627 271.816C62.9405 271.882 63.315 271.845 63.686 271.708C64.057 271.57 64.3861 271.348 64.6732 271.041L67.9595 267.526L69.0018 268.5L61.0693 276.985Z" fill="#8800FF"/>
<path d="M60.5745 259.909C61.1233 260.486 61.4795 261.101 61.643 261.755C61.7989 262.4 61.7549 263.061 61.5111 263.735C61.2596 264.402 60.8052 265.047 60.1479 265.673C59.5627 266.229 58.9272 266.612 58.2412 266.822C57.5476 267.023 56.8703 267.042 56.2094 266.876C55.5409 266.703 54.9589 266.356 54.4634 265.835C53.9222 265.266 53.5892 264.659 53.4646 264.014C53.332 263.377 53.399 262.733 53.6657 262.083C53.9245 261.44 54.3664 260.821 54.9917 260.226L55.1961 260.032L59.381 264.433C59.8062 264.013 60.1027 263.578 60.2705 263.129C60.4307 262.671 60.4692 262.23 60.3859 261.806C60.2871 261.381 60.0776 261 59.7574 260.663C59.3839 260.27 58.9756 260.017 58.5324 259.905C58.0813 259.799 57.6168 259.913 57.139 260.245L56.1671 259.223C56.5659 258.92 57.0089 258.728 57.496 258.646C57.9832 258.565 58.4981 258.624 59.0407 258.826C59.5677 259.027 60.079 259.388 60.5745 259.909ZM55.5146 261.836C54.9855 262.339 54.6981 262.879 54.6523 263.457C54.5988 264.027 54.8084 264.56 55.281 265.057C55.7308 265.53 56.2648 265.763 56.8831 265.755C57.5014 265.747 58.0781 265.527 58.6132 265.094L55.5146 261.836Z" fill="#8800FF"/>
<path d="M47.1382 257.162L46.241 256.052L46.512 255.833C46.7614 255.631 47.0152 255.426 47.2732 255.217C46.7712 255.353 46.2727 255.343 45.7778 255.189C45.2674 255.033 44.8279 254.726 44.4593 254.271C44.3619 254.15 44.2897 254.052 44.2426 253.976L45.3394 253.09C45.4195 253.224 45.5048 253.347 45.5952 253.459C45.9221 253.863 46.2777 254.145 46.6621 254.303C47.0309 254.46 47.4292 254.487 47.8571 254.382C48.2764 254.285 48.714 254.052 49.1699 253.684L52.46 251.023L53.3572 252.133L47.1382 257.162Z" fill="#8800FF"/>
<path d="M43.4829 252.543L42.6225 251.404L49.0029 246.582L49.8633 247.721L43.4829 252.543ZM48.9235 248.431L48.0631 247.293L49.0029 246.582L49.8633 247.721L48.9235 248.431ZM43.4829 252.543L43.0527 251.974L43.9926 251.263L44.4228 251.832L43.4829 252.543ZM40.9949 254.59L39.9945 253.266L41.3579 252.235L42.3584 253.559L40.9949 254.59Z" fill="#8800FF"/>
<path d="M48.2159 239.123C48.6072 239.699 48.8513 240.276 48.9481 240.852C49.0387 241.419 48.9817 241.945 48.7771 242.432C48.5725 242.918 48.2277 243.326 47.7426 243.655L46.9505 242.488C47.399 242.184 47.655 241.783 47.7183 241.285C47.7909 240.782 47.647 240.264 47.2867 239.733C46.8581 239.102 46.3518 238.73 45.768 238.618C45.1933 238.501 44.5627 238.674 43.8762 239.14L43.0662 239.69C42.9198 239.79 42.7733 239.889 42.6269 239.988C43.0835 239.932 43.5461 240.033 44.0146 240.29C44.4739 240.553 44.8682 240.927 45.1974 241.412C45.6074 242.016 45.8304 242.64 45.8664 243.284C45.8962 243.919 45.7433 244.531 45.4076 245.12C45.0628 245.715 44.5517 246.242 43.8744 246.702C43.2063 247.155 42.5258 247.423 41.8331 247.506C41.1313 247.594 40.4832 247.506 39.8889 247.241C39.2883 246.967 38.7924 246.541 38.401 245.965C38.0593 245.461 37.8772 244.957 37.8546 244.45C37.8229 243.951 37.8942 243.494 38.0688 243.082C37.8857 243.206 37.7072 243.327 37.5333 243.445L37.1764 243.688L36.375 242.507L42.663 238.239C43.7979 237.469 44.8247 237.16 45.7433 237.312C46.6711 237.457 47.4953 238.061 48.2159 239.123ZM44.1192 241.803C43.8521 241.409 43.5153 241.13 43.109 240.965C42.6964 240.79 42.2512 240.745 41.7732 240.828C41.2799 240.909 40.7907 241.114 40.3056 241.443C39.8297 241.766 39.4631 242.142 39.2059 242.571C38.9486 242.999 38.8204 243.441 38.8211 243.895C38.8155 244.34 38.9432 244.754 39.2041 245.139C39.4712 245.532 39.8157 245.813 40.2374 245.982C40.6437 246.147 41.0936 246.189 41.5869 246.109C42.0739 246.019 42.56 245.809 43.0451 245.48C43.5302 245.151 43.9045 244.776 44.1679 244.357C44.416 243.934 44.5382 243.504 44.5346 243.065C44.5248 242.617 44.3863 242.197 44.1192 241.803Z" fill="#8800FF"/>
<path d="M31.1518 240.991L30.4293 239.76L33.892 237.727C33.9779 237.677 34.0638 237.626 34.1496 237.576C34.2259 237.531 34.2832 237.498 34.3213 237.475C34.3499 237.458 34.4024 237.428 34.4787 237.383C34.0233 237.394 33.5786 237.27 33.1448 237.011C32.7013 236.759 32.3452 236.403 32.0764 235.946C31.7684 235.421 31.612 234.903 31.6074 234.393C31.5933 233.888 31.7372 233.412 32.0394 232.966C32.3359 232.509 32.7751 232.11 33.357 231.769L37.7068 229.215L38.4293 230.446L34.2368 232.907C33.5691 233.299 33.1506 233.711 32.9814 234.144C32.8027 234.583 32.873 235.074 33.1922 235.618C33.4162 235.999 33.7029 236.28 34.0521 236.46C34.3958 236.63 34.765 236.702 35.1599 236.675C35.5548 236.648 35.9334 236.529 36.2959 236.316L40.4455 233.88L41.1679 235.11L31.1518 240.991Z" fill="#8800FF"/>
<path d="M35.494 224.7C35.8026 225.288 35.8956 225.858 35.773 226.409C35.6355 226.956 35.1995 227.423 34.465 227.808L30.3959 229.945L31.0903 231.268L30.0473 231.815L29.353 230.493L27.0173 231.72L26.3538 230.457L28.6895 229.23L27.918 227.761L28.9609 227.213L29.7324 228.682L33.6693 226.614C34.061 226.409 34.2939 226.174 34.3678 225.91C34.4365 225.637 34.3835 225.334 34.2086 225.001C34.1314 224.854 34.0242 224.685 33.8868 224.495L34.9738 223.924C35.0701 224.036 35.1591 224.158 35.2409 224.29C35.3325 224.417 35.4169 224.553 35.494 224.7Z" fill="#8800FF"/>
<path d="M31.0989 215.342C31.3661 215.949 31.4195 216.524 31.259 217.066C31.084 217.602 30.6167 218.037 29.8573 218.371L25.6501 220.222L26.2513 221.589L25.1729 222.063L24.5717 220.696L22.1567 221.758L21.5822 220.452L23.9972 219.39L23.3292 217.871L24.4076 217.397L25.0756 218.915L29.1461 217.125C29.5511 216.947 29.7996 216.729 29.8916 216.471C29.9791 216.203 29.9472 215.897 29.7958 215.552C29.729 215.401 29.6336 215.225 29.5097 215.026L30.6337 214.531C30.722 214.65 30.8023 214.777 30.8748 214.915C30.9574 215.048 31.0321 215.19 31.0989 215.342Z" fill="#8800FF"/>
<path d="M22.5244 215.899L21.9932 214.575L29.4161 211.598L29.9473 212.922L22.5244 215.899ZM28.8539 213.361L28.3227 212.036L29.4161 211.598L29.9473 212.922L28.8539 213.361ZM22.5244 215.899L22.2588 215.237L23.3522 214.798L23.6178 215.461L22.5244 215.899ZM19.5862 217.221L18.9686 215.681L20.5548 215.045L21.1724 216.585L19.5862 217.221Z" fill="#8800FF"/>
<path d="M20.6815 211.419L20.229 210.066L20.8269 209.866C20.9633 209.82 21.1049 209.773 21.2518 209.724C20.783 209.612 20.37 209.406 20.0129 209.106C19.6523 208.795 19.3931 208.403 19.2352 207.931C19.0633 207.417 19.0383 206.924 19.1603 206.452C19.2788 205.969 19.5477 205.535 19.9671 205.15C19.4143 205.031 18.9366 204.806 18.534 204.474C18.1174 204.135 17.8214 203.704 17.646 203.179C17.4706 202.655 17.4264 202.156 17.5134 201.684C17.6004 201.211 17.8378 200.788 18.2257 200.413C18.5997 200.032 19.1223 199.729 19.7937 199.504L24.5932 197.899L25.0458 199.252L20.5138 200.768C19.769 201.017 19.255 201.329 18.9721 201.703C18.6751 202.071 18.6213 202.538 18.8108 203.104C18.9406 203.493 19.1577 203.793 19.4623 204.006C19.7563 204.223 20.101 204.347 20.4963 204.378C20.8811 204.412 21.2781 204.361 21.6872 204.225L26.2035 202.714L26.656 204.068L22.1713 205.567C21.4264 205.816 20.902 206.132 20.5981 206.513C20.2906 206.884 20.2281 207.343 20.4105 207.888C20.5368 208.266 20.754 208.567 21.062 208.79C21.3665 209.003 21.7235 209.129 22.1328 209.167C22.5316 209.208 22.9408 209.159 23.3604 209.019L27.8137 207.53L28.2663 208.883L20.6815 211.419Z" fill="#8800FF"/>
<path d="M23.4885 192.358C23.6818 193.131 23.6886 193.842 23.509 194.491C23.3267 195.13 22.9632 195.683 22.4187 196.149C21.8715 196.606 21.1579 196.944 20.2779 197.164C19.4946 197.36 18.7528 197.38 18.0525 197.225C17.3496 197.058 16.7512 196.741 16.2575 196.271C15.7611 195.791 15.4256 195.202 15.2511 194.505C15.0605 193.743 15.0698 193.051 15.279 192.428C15.4774 191.808 15.8529 191.281 16.4055 190.846C16.9474 190.414 17.6368 190.094 18.4738 189.884L18.7475 189.816L20.2213 195.707C20.7981 195.551 21.2703 195.319 21.6378 195.011C22.0026 194.691 22.2534 194.326 22.3901 193.916C22.5135 193.497 22.5188 193.063 22.406 192.612C22.2745 192.086 22.0437 191.665 21.7136 191.349C21.3729 191.035 20.9127 190.905 20.3332 190.958L19.9909 189.59C20.4873 189.523 20.9675 189.574 21.4317 189.743C21.8958 189.912 22.3144 190.218 22.6874 190.66C23.047 191.095 23.314 191.661 23.4885 192.358ZM18.1361 191.542C17.4278 191.719 16.9114 192.048 16.5869 192.529C16.2596 192.998 16.1793 193.566 16.3457 194.231C16.5041 194.864 16.8543 195.329 17.3963 195.627C17.9383 195.925 18.5486 196.017 19.2274 195.904L18.1361 191.542Z" fill="#8800FF"/>
<path d="M24.8692 138.836C24.7741 139.493 24.515 140.009 24.0919 140.383C23.6595 140.745 23.0327 140.867 22.2116 140.748L17.6629 140.09L17.4489 141.568L16.283 141.399L16.497 139.921L13.886 139.543L14.0905 138.131L16.7015 138.509L16.9392 136.866L18.1051 137.035L17.8674 138.677L22.2683 139.315C22.7062 139.378 23.0325 139.325 23.2471 139.155C23.4633 138.973 23.5984 138.697 23.6523 138.325C23.6761 138.16 23.6882 137.961 23.6886 137.726L24.9038 137.902C24.916 138.049 24.9165 138.2 24.9053 138.355C24.905 138.512 24.893 138.672 24.8692 138.836Z" fill="#8800FF"/>
<path d="M26.1302 132.375C25.9831 133.124 25.6784 133.757 25.2159 134.275C24.7535 134.793 24.1755 135.153 23.482 135.355C22.7776 135.555 22.013 135.574 21.188 135.412C20.3848 135.254 19.7004 134.951 19.1348 134.501C18.5583 134.05 18.154 133.497 17.9218 132.843C17.6787 132.186 17.6307 131.483 17.7778 130.735C17.9227 129.996 18.2319 129.369 18.7052 128.854C19.1676 128.336 19.751 127.977 20.4554 127.777C21.151 127.564 21.9005 127.537 22.7037 127.694C23.5286 127.856 24.2283 128.169 24.8026 128.631C25.3682 129.08 25.7671 129.632 25.9993 130.286C26.2316 130.941 26.2752 131.637 26.1302 132.375ZM25.0394 132.161C25.1353 131.672 25.0882 131.223 24.898 130.814C24.71 130.394 24.4018 130.04 23.9734 129.753C23.5451 129.466 23.027 129.263 22.4191 129.143C21.4965 128.962 20.7147 129.04 20.0737 129.376C19.424 129.699 19.0278 130.225 18.8849 130.952C18.7911 131.43 18.8383 131.878 19.0263 132.299C19.2035 132.717 19.5062 133.069 19.9346 133.356C20.3521 133.641 20.8648 133.843 21.4726 133.963C22.4061 134.146 23.1977 134.076 23.8474 133.753C24.4971 133.429 24.8944 132.899 25.0394 132.161Z" fill="#8800FF"/>
<path d="M29.3352 119.29C29.138 119.97 28.8516 120.52 28.4761 120.941C28.1006 121.362 27.6672 121.645 27.1758 121.79C26.6844 121.936 26.161 121.934 25.6055 121.784L25.9938 120.445C26.5312 120.578 27.0032 120.519 27.4099 120.269C27.8091 120.005 28.0965 119.57 28.2722 118.964C28.4263 118.433 28.438 117.976 28.3074 117.592C28.1692 117.195 27.9089 116.941 27.5264 116.83C27.2183 116.741 26.9363 116.78 26.6804 116.947C26.4169 117.101 26.1764 117.394 25.9589 117.826L25.3983 118.925C25.0475 119.618 24.6261 120.118 24.1341 120.424C23.642 120.731 23.1092 120.801 22.5355 120.634C22.0999 120.508 21.7492 120.268 21.4832 119.914C21.2172 119.561 21.0533 119.133 20.9915 118.631C20.9222 118.116 20.9707 117.571 21.1372 116.998C21.3159 116.382 21.571 115.88 21.9023 115.492C22.2229 115.101 22.6046 114.838 23.0473 114.701C23.4825 114.551 23.965 114.536 24.4948 114.655L24.1019 116.009C23.6296 115.93 23.2304 116.016 22.9042 116.267C22.5811 116.507 22.3441 116.887 22.1931 117.408C22.0605 117.865 22.0551 118.26 22.1768 118.595C22.2986 118.93 22.5241 119.145 22.8534 119.241C23.1509 119.327 23.4154 119.289 23.647 119.125C23.8787 118.962 24.1017 118.67 24.3161 118.248L24.886 117.118C25.2367 116.425 25.6513 115.929 26.1296 115.63C26.611 115.321 27.1598 115.255 27.776 115.434C28.2328 115.566 28.6154 115.816 28.9239 116.182C29.2218 116.544 29.4129 116.997 29.4973 117.54C29.5742 118.069 29.5202 118.652 29.3352 119.29Z" fill="#8800FF"/>
<path d="M31.4802 112.18C31.2686 112.809 30.921 113.27 30.4375 113.562C29.947 113.841 29.3086 113.848 28.5223 113.583L24.1659 112.118L23.6899 113.533L22.5733 113.158L23.0493 111.742L20.5487 110.901L21.0037 109.549L23.5042 110.39L24.0332 108.817L25.1498 109.193L24.6208 110.765L28.8356 112.183C29.255 112.324 29.5856 112.33 29.8273 112.201C30.0725 112.062 30.2551 111.814 30.375 111.458C30.4279 111.301 30.4756 111.107 30.5182 110.876L31.682 111.267C31.6676 111.414 31.641 111.563 31.6021 111.713C31.5737 111.867 31.5331 112.022 31.4802 112.18Z" fill="#8800FF"/>
<path d="M33.3597 107.404C33.1738 107.878 32.9114 108.274 32.5725 108.593C32.2336 108.911 31.8497 109.117 31.421 109.21C30.982 109.299 30.536 109.255 30.0829 109.077C29.4136 108.815 28.9774 108.382 28.7742 107.779C28.575 107.166 28.5623 106.472 28.736 105.697L29.1132 104.009C29.1811 103.715 29.1807 103.489 29.1119 103.331C29.043 103.173 28.8954 103.05 28.6688 102.961C28.2672 102.803 27.8986 102.819 27.563 103.008C27.217 103.193 26.9572 103.507 26.7834 103.95C26.5652 104.506 26.5365 104.988 26.6973 105.396C26.8478 105.799 27.1559 106.104 27.6215 106.311L27.1002 107.639C26.6449 107.437 26.2681 107.14 25.9697 106.75C25.6714 106.36 25.4907 105.897 25.4276 105.361C25.3686 104.815 25.4563 104.243 25.6907 103.646C25.9291 103.038 26.2464 102.563 26.6427 102.219C27.043 101.865 27.4987 101.658 28.0098 101.597C28.5209 101.536 29.0648 101.619 29.6414 101.845L34.5222 103.761L34.0252 105.028L33.6545 104.882C33.4382 104.797 33.2271 104.714 33.0212 104.633C33.3397 104.972 33.5283 105.385 33.587 105.872C33.6496 106.348 33.5739 106.859 33.3597 107.404ZM32.3976 106.813C32.5511 106.422 32.6062 106.039 32.5626 105.666C32.5129 105.278 32.373 104.938 32.1431 104.645C31.9069 104.339 31.5932 104.109 31.2019 103.955L30.1053 103.525C30.1612 103.594 30.1866 103.711 30.1815 103.876C30.1805 104.03 30.1561 104.228 30.1084 104.471L29.8848 105.631C29.7916 106.141 29.7986 106.577 29.9057 106.94C30.0128 107.303 30.2517 107.557 30.6224 107.703C30.9931 107.848 31.3422 107.837 31.6698 107.668C32.0014 107.489 32.244 107.204 32.3976 106.813Z" fill="#8800FF"/>
<path d="M28.5865 97.3689L29.1775 96.0701L29.4946 96.2144C29.7866 96.3472 30.0836 96.4824 30.3857 96.6199C30.0398 96.2315 29.8253 95.7815 29.7422 95.2697C29.6536 94.7433 29.7308 94.2133 29.9736 93.6796C30.0377 93.5387 30.0932 93.4302 30.1399 93.3543L31.4236 93.9384C31.3393 94.0702 31.2674 94.2015 31.2078 94.3324C30.9925 94.8056 30.8998 95.2496 30.9299 95.6643C30.9544 96.0644 31.109 96.4325 31.3936 96.7686C31.6681 97.1001 32.0721 97.3873 32.6057 97.6301L36.4569 99.3826L35.8658 100.681L28.5865 97.3689Z" fill="#8800FF"/>
<path d="M39.7119 92.9343C39.4144 93.5276 39.0058 93.9353 38.4862 94.1573C37.9615 94.3645 37.3284 94.2822 36.5868 93.9103L32.4782 91.8503L31.8088 93.1852L30.7557 92.6572L31.4251 91.3223L29.0667 90.1398L29.7062 88.8642L32.0646 90.0467L32.8083 88.5634L33.8614 89.0914L33.1177 90.5747L37.0929 92.5678C37.4884 92.7661 37.8149 92.8184 38.0722 92.7247C38.3345 92.6211 38.5499 92.4012 38.7185 92.065C38.7929 91.9167 38.8673 91.7312 38.9417 91.5087L40.0394 92.0591C40.0046 92.2025 39.9574 92.3459 39.8979 92.4893C39.8483 92.6376 39.7863 92.786 39.7119 92.9343Z" fill="#8800FF"/>
<path d="M44.8464 83.9737C44.4827 84.581 44.0656 85.0404 43.5954 85.3519C43.1252 85.6633 42.6339 85.8268 42.1217 85.8424C41.6095 85.858 41.1039 85.7227 40.6047 85.4366L41.3209 84.2409C41.8068 84.5061 42.2783 84.5693 42.7353 84.4305C43.1886 84.2765 43.5773 83.9291 43.9013 83.3882C44.1855 82.9137 44.3132 82.4744 44.2845 82.0704C44.2519 81.6511 44.0648 81.3392 43.7232 81.1346C43.448 80.9697 43.1653 80.9358 42.8751 81.0328C42.5811 81.1146 42.274 81.3367 41.9536 81.6993L41.1319 82.6191C40.6164 83.1999 40.0817 83.576 39.5278 83.7471C38.974 83.9182 38.4409 83.8503 37.9285 83.5434C37.5394 83.3103 37.2612 82.989 37.094 82.5794C36.9267 82.1697 36.8771 81.7145 36.945 81.2136C37.0091 80.6975 37.1947 80.1833 37.5016 79.6708C37.8313 79.1205 38.2056 78.7 38.6247 78.4094C39.0342 78.1132 39.4704 77.9554 39.9333 77.9361C40.3924 77.9016 40.8629 78.0094 41.345 78.2594L40.6202 79.4693C40.1838 79.2724 39.7759 79.2537 39.3966 79.4133C39.023 79.5635 38.6969 79.8711 38.4184 80.336C38.174 80.7441 38.068 81.1255 38.1005 81.4802C38.133 81.8349 38.2964 82.1004 38.5905 82.2766C38.8563 82.4358 39.1219 82.4659 39.3874 82.3671C39.6529 82.2682 39.943 82.0423 40.2576 81.6892L41.0964 80.741C41.612 80.1601 42.1391 79.786 42.6777 79.6186C43.222 79.4418 43.7694 79.5182 44.3198 79.8479C44.7279 80.0923 45.0345 80.4307 45.2397 80.8631C45.4354 81.2898 45.505 81.7764 45.4485 82.3228C45.3882 82.854 45.1875 83.4043 44.8464 83.9737Z" fill="#8800FF"/>
<path d="M49.3687 76.9326C48.9406 77.5645 48.4125 78.0285 47.7844 78.3245C47.1563 78.6205 46.4836 78.7259 45.7663 78.6408C45.0399 78.5495 44.3287 78.2681 43.6327 77.7965C42.955 77.3374 42.4436 76.7906 42.0986 76.156C41.7444 75.5152 41.5883 74.8483 41.6302 74.1552C41.6631 73.4559 41.8935 72.7903 42.3216 72.1584C42.7435 71.5357 43.2731 71.0794 43.9103 70.7896C44.5384 70.4936 45.2157 70.3913 45.9421 70.4826C46.6656 70.5586 47.3662 70.8261 48.0439 71.2852C48.7399 71.7567 49.2619 72.3175 49.6099 72.9674C49.9549 73.602 50.1065 74.2658 50.0645 74.9589C50.0225 75.652 49.7906 76.3099 49.3687 76.9326ZM48.4483 76.3091C48.7275 75.897 48.8596 75.4654 48.8445 75.0143C48.8357 74.554 48.6902 74.108 48.4081 73.6764C48.126 73.2448 47.7285 72.8552 47.2156 72.5078C46.4372 71.9804 45.6873 71.7463 44.9658 71.8053C44.2414 71.849 43.6714 72.1777 43.2557 72.7913C42.9827 73.1942 42.8507 73.6258 42.8595 74.0861C42.8592 74.5402 43.0001 74.983 43.2822 75.4147C43.5552 75.8401 43.9481 76.2265 44.4609 76.574C45.2485 77.1075 46.0045 77.3525 46.7289 77.3088C47.4533 77.2651 48.0264 76.9318 48.4483 76.3091Z" fill="#8800FF"/>
<path d="M45.9946 67.2719L46.8841 66.1561L47.3771 66.5491C47.4896 66.6387 47.6063 66.7318 47.7274 66.8283C47.566 66.3743 47.5142 65.9157 47.5721 65.4526C47.6369 64.9809 47.8244 64.5504 48.1347 64.1611C48.4726 63.7373 48.8728 63.4481 49.3355 63.2935C49.8052 63.1302 50.3156 63.1198 50.867 63.2622C50.6656 62.734 50.5947 62.2106 50.6543 61.6923C50.7121 61.1584 50.9133 60.6751 51.2581 60.2426C51.6028 59.8101 51.997 59.5019 52.4407 59.318C52.8843 59.1341 53.3688 59.103 53.8942 59.2247C54.4179 59.3309 54.9565 59.6046 55.5101 60.0459L59.4675 63.2003L58.5781 64.3161L54.8412 61.3376C54.2271 60.848 53.6859 60.5864 53.2177 60.5527C52.7477 60.5034 52.3265 60.7124 51.9542 61.1795C51.6991 61.4995 51.565 61.8453 51.5518 62.2167C51.53 62.5813 51.6136 62.9379 51.8025 63.2865C51.9828 63.6282 52.2416 63.9335 52.5789 64.2024L56.3028 67.1707L55.4133 68.2865L51.7154 65.339C51.1013 64.8494 50.5514 64.5809 50.0659 64.5334C49.5873 64.4773 49.1687 64.6741 48.8102 65.1239C48.562 65.4353 48.4278 65.781 48.4078 66.1611C48.3946 66.5326 48.4834 66.9004 48.6741 67.2646C48.8561 67.6219 49.1201 67.9384 49.4661 68.2142L53.1381 71.141L52.2486 72.2569L45.9946 67.2719Z" fill="#8800FF"/>
<path d="M63.5391 59.1988C62.9963 59.7816 62.4036 60.1744 61.7612 60.3772C61.1263 60.5719 60.4648 60.568 59.7767 60.3654C59.0961 60.1548 58.424 59.7403 57.7603 59.1221C57.1694 58.5717 56.7485 57.9605 56.4977 57.2885C56.2544 56.6084 56.1952 55.9335 56.3202 55.2638C56.4527 54.586 56.7639 53.984 57.254 53.4579C57.7893 52.8832 58.3749 52.5141 59.0109 52.3506C59.6388 52.1796 60.2855 52.2076 60.951 52.4344C61.6084 52.6537 62.2528 53.0574 62.8842 53.6455L63.0906 53.8377L58.9514 58.2815C59.396 58.6805 59.8478 58.9502 60.3067 59.0904C60.7732 59.2226 61.2158 59.2343 61.6346 59.1255C62.0528 59.0011 62.4203 58.7689 62.7369 58.4289C63.1064 58.0323 63.334 57.6094 63.4198 57.1602C63.4975 56.7035 63.3561 56.2468 62.9955 55.79L63.9568 54.7579C64.2833 55.1377 64.5021 55.5682 64.6131 56.0495C64.7241 56.5309 64.6955 57.0484 64.5273 57.6023C64.3586 58.1405 64.0292 58.6727 63.5391 59.1988ZM61.3095 54.2649C60.7753 53.7673 60.2184 53.5131 59.6388 53.5024C59.0668 53.4835 58.5471 53.725 58.0796 54.2269C57.6348 54.7044 57.4351 55.2516 57.4804 55.8683C57.5258 56.485 57.7805 57.0473 58.2447 57.5552L61.3095 54.2649Z" fill="#8800FF"/>
<path d="M69.6489 52.8277C69.174 53.2913 68.6547 53.5432 68.091 53.5834C67.5275 53.608 66.956 53.3235 66.3764 52.7298L63.1655 49.4412L62.097 50.4845L61.274 49.6416L62.3425 48.5983L60.4995 46.7106L61.5205 45.7138L63.3635 47.6014L64.5508 46.4423L65.3738 47.2852L64.1865 48.4444L67.2931 51.6261C67.6022 51.9427 67.8937 52.0987 68.1675 52.0942C68.4492 52.0819 68.7247 51.9444 68.9938 51.6817C69.1125 51.5657 69.2434 51.4148 69.3864 51.2288L70.2442 52.1073C70.1645 52.2315 70.0731 52.3517 69.97 52.4678C69.8746 52.5918 69.7676 52.7117 69.6489 52.8277Z" fill="#8800FF"/>
<path d="M64.1065 41.8961L65.177 40.9525L67.8321 43.9648C67.898 44.0394 67.9638 44.1141 68.0296 44.1888C68.0881 44.2552 68.132 44.305 68.1613 44.3382C68.1832 44.3631 68.2235 44.4087 68.282 44.4751C68.1846 44.0301 68.2214 43.57 68.3924 43.0949C68.5561 42.6114 68.8371 42.1941 69.2354 41.8431C69.6918 41.4408 70.1701 41.1887 70.6703 41.087C71.1631 40.977 71.6576 41.0277 72.1537 41.2393C72.6581 41.4435 73.1334 41.7987 73.5796 42.3048L76.915 46.0888L75.8445 47.0324L72.6298 43.3853C72.1178 42.8045 71.6332 42.4722 71.1761 42.3885C70.7116 42.2966 70.2429 42.4591 69.7699 42.876C69.438 43.1686 69.2171 43.5034 69.1071 43.8805C69.0054 44.2503 69.0052 44.6265 69.1065 45.009C69.2078 45.3916 69.3974 45.7406 69.6754 46.0559L72.8572 49.6656L71.7867 50.6092L64.1065 41.8961Z" fill="#8800FF"/>
<path d="M73.4518 38.6303L74.5624 37.7343L79.5842 43.9588L78.4736 44.8548L73.4518 38.6303ZM77.7339 43.9379L78.8444 43.0419L79.5842 43.9588L78.4736 44.8548L77.7339 43.9379ZM73.4518 38.6303L74.0071 38.1823L74.7468 39.0992L74.1915 39.5472L73.4518 38.6303ZM71.3273 36.2084L72.6187 35.1665L73.6918 36.4966L72.4004 37.5385L71.3273 36.2084Z" fill="#8800FF"/>
<path d="M77.4781 35.4237L78.6134 34.5869L78.9383 35.0276C79.0433 35.17 79.1483 35.3125 79.2533 35.455C79.2171 35.0144 79.3061 34.5572 79.5202 34.0833C79.7277 33.6004 80.0362 33.2081 80.4458 32.9061C80.9355 32.5451 81.4339 32.3357 81.9411 32.278C82.4416 32.2113 82.9298 32.3049 83.4056 32.5588C83.8903 32.8062 84.3328 33.2014 84.7332 33.7446L87.7263 37.8047L86.5778 38.6514L83.6929 34.7382C83.2335 34.115 82.7841 33.7385 82.3449 33.6087C81.8992 33.4701 81.427 33.5846 80.9283 33.9522C80.5633 34.2213 80.3051 34.5422 80.1538 34.9148C80.0114 35.2809 79.974 35.6589 80.0416 36.0489C80.1092 36.4388 80.2677 36.803 80.5171 37.1413L83.3724 41.0144L82.2238 41.8612L77.4781 35.4237Z" fill="#8800FF"/>
<path d="M94.3054 37.9149C93.7186 38.2909 93.136 38.5196 92.5577 38.6011C91.9886 38.6767 91.4637 38.6058 90.9828 38.3884C90.5019 38.171 90.1034 37.8155 89.7871 37.3218L90.9746 36.561C91.267 37.0173 91.6611 37.2838 92.1568 37.3603C92.6585 37.4462 93.1794 37.316 93.7196 36.9699C94.3623 36.5581 94.7472 36.0619 94.8744 35.4812C95.0075 34.9098 94.8503 34.2749 94.4027 33.5763L93.8746 32.752C93.7791 32.603 93.6836 32.454 93.5881 32.305C93.632 32.763 93.5193 33.2227 93.2501 33.6842C92.9749 34.1364 92.5905 34.5207 92.0968 34.8369C91.4821 35.2308 90.8524 35.4372 90.2077 35.4562C89.5722 35.4692 88.9647 35.3001 88.385 34.9489C87.7993 34.5885 87.2857 34.0636 86.8441 33.3744C86.4085 32.6945 86.1586 32.0072 86.0946 31.3125C86.0245 30.6086 86.1299 29.963 86.4106 29.3759C86.7006 28.7829 87.139 28.2983 87.7258 27.9224C88.238 27.5942 88.7474 27.4255 89.2539 27.4163C89.7544 27.3978 90.2085 27.4812 90.6163 27.6666C90.497 27.4803 90.3806 27.2987 90.2672 27.1217L90.0345 26.7585L91.236 25.9887L95.3357 32.3874C96.0757 33.5423 96.3575 34.5769 96.1814 35.4912C96.0111 36.4148 95.3858 37.2227 94.3054 37.9149ZM91.7346 33.7487C92.1351 33.4921 92.4234 33.1629 92.5995 32.7611C92.7849 32.3533 92.842 31.9094 92.771 31.4294C92.7033 30.9341 92.5113 30.4397 92.195 29.946C91.8847 29.4617 91.5187 29.0853 91.0971 28.8168C90.6755 28.5483 90.2377 28.4084 89.7837 28.3971C89.3391 28.3798 88.9212 28.4965 88.53 28.7471C88.1295 29.0037 87.8396 29.3406 87.6602 29.7577C87.4841 30.1595 87.4299 30.6081 87.4976 31.1033C87.5746 31.5926 87.7713 32.0841 88.0875 32.5777C88.4038 33.0714 88.7681 33.4554 89.1804 33.7299C89.5961 33.989 90.0233 34.1226 90.4619 34.1306C90.9099 34.1326 91.3341 34.0053 91.7346 33.7487Z" fill="#8800FF"/>
<path d="M98.8171 21.651L100.071 21.0061L100.322 21.493C100.403 21.6504 100.484 21.8078 100.565 21.9652C100.599 21.5245 100.76 21.0873 101.047 20.6537C101.329 20.2102 101.696 19.8721 102.149 19.6394C102.69 19.3611 103.215 19.234 103.725 19.2579C104.23 19.272 104.697 19.4423 105.126 19.7689C105.565 20.0905 105.939 20.5513 106.247 21.1514L108.554 25.6372L107.285 26.2897L105.062 21.9662C104.708 21.2776 104.324 20.8342 103.911 20.6361C103.493 20.4281 103.009 20.4657 102.458 20.749C102.055 20.9564 101.749 21.232 101.54 21.5757C101.341 21.9144 101.243 22.2816 101.248 22.6773C101.252 23.073 101.351 23.4578 101.543 23.8316L103.743 28.1108L102.474 28.7634L98.8171 21.651Z" fill="#8800FF"/>
<path d="M113.477 23.6975C112.749 24.0196 112.05 24.1474 111.379 24.0809C110.719 24.01 110.112 23.746 109.56 23.2889C109.017 22.8274 108.562 22.1818 108.195 21.3522C107.869 20.6137 107.723 19.8862 107.757 19.1697C107.801 18.4487 108.012 17.805 108.39 17.2385C108.779 16.6676 109.302 16.2367 109.96 15.946C110.678 15.6284 111.362 15.5197 112.011 15.6198C112.655 15.7098 113.239 15.99 113.761 16.4605C114.279 16.9209 114.713 17.5456 115.061 18.3347L115.175 18.5927L109.621 21.0484C109.873 21.5902 110.182 22.0159 110.549 22.3255C110.925 22.6306 111.328 22.8156 111.756 22.8805C112.189 22.9307 112.618 22.8619 113.043 22.674C113.539 22.4549 113.915 22.1557 114.17 21.7766C114.421 21.3873 114.471 20.9118 114.32 20.3499L115.61 19.7796C115.76 20.2573 115.792 20.7391 115.704 21.2253C115.617 21.7115 115.387 22.176 115.014 22.6189C114.647 23.0472 114.135 23.4068 113.477 23.6975ZM113.37 18.2843C113.075 17.6166 112.663 17.1637 112.134 16.9257C111.616 16.6832 111.043 16.7006 110.416 16.9779C109.819 17.2418 109.42 17.6662 109.219 18.251C109.018 18.8357 109.031 19.4529 109.257 20.1025L113.37 18.2843Z" fill="#8800FF"/>
<path d="M115.021 13.9794L116.474 13.4612L120.104 18.4556C120.277 18.676 120.39 18.8293 120.445 18.9157C120.446 18.6567 120.442 18.4644 120.433 18.3386L120.1 12.1684L121.772 11.5722L125.512 16.5277C125.534 16.5552 125.557 16.588 125.582 16.626C125.665 16.7257 125.742 16.8273 125.814 16.9308C125.812 16.8259 125.812 16.7262 125.813 16.6317C125.808 16.5513 125.803 16.4709 125.798 16.3906L125.445 10.2628L126.805 9.77801L127.068 18.1749L125.505 18.7321L121.758 13.656C121.639 13.4871 121.517 13.3252 121.391 13.1703C121.396 13.2507 121.398 13.3381 121.396 13.4326C121.401 13.513 121.404 13.5707 121.405 13.6056C121.406 13.6406 121.409 13.6983 121.414 13.7786L121.707 20.0861L120.16 20.6377L115.021 13.9794Z" fill="#8800FF"/>
<path d="M131.995 13.456C131.852 12.9445 131.769 12.5026 131.746 12.1301C131.73 11.7441 131.79 11.36 131.924 10.978C132.067 10.5823 132.302 10.1493 132.63 9.67888L132.936 9.23186C133.094 9.0156 133.223 8.79611 133.321 8.57339C133.431 8.34769 133.502 8.1096 133.536 7.8591C133.566 7.59795 133.546 7.33951 133.474 7.08377C133.332 6.5723 133.039 6.20041 132.595 5.96809C132.151 5.73576 131.626 5.70424 131.018 5.87352C130.315 6.06952 129.825 6.45304 129.548 7.02409C129.268 7.58447 129.236 8.2536 129.453 9.03146L128.03 9.42792C127.819 8.67137 127.791 7.97299 127.946 7.33277C128.111 6.68959 128.431 6.14693 128.904 5.7048C129.386 5.24905 129.984 4.92168 130.698 4.72271C131.348 4.54155 131.969 4.50608 132.563 4.6163C133.156 4.72652 133.658 4.95997 134.067 5.31667C134.484 5.65974 134.763 6.08169 134.902 6.5825C135.072 7.18987 135.071 7.76423 134.9 8.30557C134.74 8.84395 134.445 9.41412 134.016 10.0161L133.683 10.488C133.502 10.7451 133.372 10.9996 133.292 11.2513C133.224 11.5 133.196 11.7718 133.21 12.0667C133.22 12.3509 133.279 12.6848 133.385 13.0684L131.995 13.456ZM132.235 14.7498L133.881 14.291L134.367 16.0332L132.72 16.492L132.235 14.7498Z" fill="#8800FF"/>
</svg>
