
<svg width="620" height="620" viewBox="0 0 620 620" fill="none" xmlns="http://www.w3.org/2000/svg">
<path fill-rule="evenodd" clip-rule="evenodd" d="M298.062 136.63L341.873 1L384.248 14.6877L305.518 258.42L221.272 76.9915L261.66 58.2372L298.062 136.63Z" fill="#8800FF"/>
<path fill-rule="evenodd" clip-rule="evenodd" d="M424.156 178.968L453.848 97.812L412.028 82.512L343.295 270.381L571.307 153.675L551.018 114.035L424.156 178.968Z" fill="#117D45"/>
<path fill-rule="evenodd" clip-rule="evenodd" d="M483.344 298.063L561.738 261.661L542.983 221.272L361.555 305.519L605.287 384.248L618.975 341.874L483.344 298.063Z" fill="#91F925"/>
<path fill-rule="evenodd" clip-rule="evenodd" d="M349.598 343.292L537.467 412.026L522.167 453.845L441.01 424.154L505.944 551.016L466.304 571.305L349.598 343.292Z" fill="#332BFD"/>
<path fill-rule="evenodd" clip-rule="evenodd" d="M314.462 361.555L398.708 542.984L358.32 561.738L321.918 483.345L278.107 618.975L235.732 605.288L314.462 361.555Z" fill="#FA0B54"/>
<path fill-rule="evenodd" clip-rule="evenodd" d="M276.686 349.594L207.953 537.463L166.133 522.163L195.825 441.007L68.9631 505.94L48.6738 466.301L276.686 349.594Z" fill="#FB42DF"/>
<path fill-rule="evenodd" clip-rule="evenodd" d="M136.631 321.915L1 278.105L14.6877 235.73L258.42 314.46L76.9915 398.706L58.2372 358.317L136.631 321.915Z" fill="#FBA808"/>
<path fill-rule="evenodd" clip-rule="evenodd" d="M178.976 195.837L114.036 68.9595L153.675 48.6704L270.399 276.718L82.5098 207.948L97.8154 166.131L178.976 195.837Z" fill="#0BC1FA"/>
</svg>
